<svg version="1.1" id="Layer_1" xmlns="http://www.w3.org/2000/svg" xmlns:xlink="http://www.w3.org/1999/xlink" x="0px" y="0px" preserveAspectRatio="xMidYMid meet"
	 viewBox="0 0 937.99 858.08">
<g>
	<path fill="black" d="M50.03,363.95h309.4c11.57,0,15.42-3.86,15.42-15.42v-94.46c0-11.57-3.86-15.42-15.42-15.42H50.03
		c-10.6,0-14.46,3.86-14.46,15.42v94.46C35.57,360.09,39.43,363.95,50.03,363.95z"/>
	<path fill="black" d="M50.03,184.67h309.4c11.57,0,15.42-3.86,15.42-14.46V74.79c0-11.57-3.86-15.42-15.42-15.42H50.03
		c-10.6,0-14.46,3.86-14.46,15.42v95.42C35.57,180.81,39.43,184.67,50.03,184.67z"/>
	<path fill="black" d="M220.63,429.49c-109.88,0-199.52,89.64-199.52,199.52c0,108.92,89.64,199.52,199.52,199.52
		c108.92,0,199.52-90.6,199.52-199.52C420.16,519.13,329.55,429.49,220.63,429.49z M131.96,695.52c-10.6,0-17.35-9.64-17.35-26.99
		s6.75-27.95,17.35-27.95s17.35,10.6,17.35,27.95S142.56,695.52,131.96,695.52z M281.36,753.35c-10.6,9.64-33.74,21.21-60.72,21.21
		c-26.99,0-50.12-11.57-61.69-21.21c-7.71-7.71-10.6-17.35-2.89-25.06c5.78-6.75,15.42-4.82,22.17,0.96
		c8.67,7.71,25.06,13.49,42.41,13.49c16.39,0,32.77-5.78,41.45-13.49c7.71-5.78,16.39-7.71,22.17-0.96
		C292.92,736,290.03,745.64,281.36,753.35z M309.31,695.52c-10.6,0-17.35-9.64-17.35-26.99s6.75-27.95,17.35-27.95
		s17.35,10.6,17.35,27.95S319.91,695.52,309.31,695.52z M400.88,632.87c-31.81,0-102.17-17.35-154.22-77.11
		c-73.25,63.62-173.5,68.43-208.2,68.43c0-11.57,1.93-24.1,4.82-34.7c30.84,0,131.09-10.6,191.81-70.36
		c10.6-8.67,21.21-6.75,29.88,5.78c38.55,51.09,104.1,74.22,133.98,74.22C400.88,610.7,401.84,621.3,400.88,632.87z"/>
	<path fill="black" d="M913.66,358.17c-25.06-14.46-38.55-84.82-38.55-131.09c0-109.88-90.6-199.52-199.52-199.52S476.06,117.2,476.06,227.08
		c0,46.27-12.53,114.7-42.41,133.01c-14.46,8.67-15.42,24.1-1.93,30.84c25.78,13.37,83.71,14.43,131.64,0.4
		c32.13,22.18,70.85,35.27,112.22,35.27c41.49,0,80.32-13.16,112.5-35.46c47.11,14.24,105.46,13.23,131.36-0.2
		C932.94,384.19,930.04,367.8,913.66,358.17z M499.19,182.74c30.84,0,131.09-10.6,191.81-70.36c10.6-8.67,21.21-6.75,29.88,5.78
		c38.55,51.09,104.1,74.22,133.98,74.22c1.93,11.57,2.89,22.17,1.93,33.74c-31.81,0-102.17-17.35-154.22-77.11
		c-73.25,63.62-173.5,68.43-208.2,68.43C494.37,205.87,496.3,193.34,499.19,182.74z M463.18,370.99
		c14.14-12.53,24.17-34.78,30.35-63.14c10.16,22.48,24.39,42.84,41.72,60.1C513.18,373.82,481.46,375.68,463.18,370.99z
		 M587.87,294.55c-11.57,0-18.31-10.6-18.31-27.95c0-17.35,6.75-27.95,18.31-27.95c9.64,0,16.39,10.6,16.39,27.95
		C604.26,283.95,597.51,294.55,587.87,294.55z M738.23,354.31c-16.39,13.49-37.59,22.17-62.65,22.17s-47.23-8.67-61.69-22.17
		c-8.67-6.75-9.64-17.35-0.96-25.06c4.82-4.82,13.49-3.86,19.28,0.96c10.6,8.67,25.06,15.42,44.34,15.42s32.77-7.71,43.37-16.39
		c5.78-4.82,14.46-3.86,21.21,1.93C746.91,337.92,745.94,347.56,738.23,354.31z M765.22,294.55c-11.57,0-18.31-10.6-18.31-27.95
		c0-17.35,6.75-27.95,18.31-27.95c9.64,0,16.39,10.6,16.39,27.95C781.61,283.95,774.86,294.55,765.22,294.55z M815.78,368.08
		c16.74-16.65,30.59-36.19,40.7-57.74c5.61,27.9,15.23,50.58,30.15,60.89C868.43,376.55,837.76,374.34,815.78,368.08z"/>
	<path fill="black" d="M838.48,537.45c-1.93-5.78-7.71-8.67-13.49-6.75l-90.6,37.59l6.75-95.42c0-6.75-3.86-10.6-9.64-10.6H617.75
		c-5.78,0-10.6,3.86-9.64,10.6l7.71,95.42l-92.53-37.59c-5.78-1.93-10.6,0-12.53,5.78L475.1,639.62
		c-1.93,6.75,0.96,12.53,6.75,13.49l96.39,22.17l-64.58,72.29c-4.82,4.82-2.89,11.57,1.93,15.42l92.53,63.62
		c4.82,3.86,10.6,2.89,14.46-2.89l52.05-82.89l53.01,82.89c3.86,5.78,7.71,6.75,13.49,2.89l92.53-63.62
		c5.78-3.86,6.75-10.6,2.89-15.42l-65.54-72.29l98.32-22.17c5.78-0.96,9.64-6.75,6.75-13.49L838.48,537.45z"/>
</g>
</svg>
